<svg width="9" height="11" viewBox="0 0 9 11" fill="none" xmlns="http://www.w3.org/2000/svg">
<path d="M1.45117 1.61441V1.61111V1.61441ZM1.45117 1.61441V1.61954M1.45117 1.61441V1.61954M1.45117 1.61954V1.62467M1.45117 1.61954V1.62467M1.45117 1.62467V1.6298M1.45117 1.62467V1.6298M1.45117 1.6298V1.63493M1.45117 1.6298V1.63493M1.45117 1.63493V1.64006M1.45117 1.63493V1.64006M1.45117 1.64006V1.64518M1.45117 1.64006V1.64518M1.45117 1.64518V1.65031M1.45117 1.64518V1.65031M1.45117 1.65031V1.65543M1.45117 1.65031V1.65543M1.45117 1.65543V1.66055M1.45117 1.65543V1.66055M1.45117 1.66055V1.66566M1.45117 1.66055V1.66566M1.45117 1.66566V1.67078M1.45117 1.66566V1.67078M1.45117 1.67078V1.67589M1.45117 1.67078V1.67589M1.45117 1.67589V1.68101M1.45117 1.67589V1.68101M1.45117 1.68101V1.68612M1.45117 1.68101V1.68612M1.45117 1.68612V1.69122M1.45117 1.68612V1.69122M1.45117 1.69122V1.69633M1.45117 1.69122V1.69633M1.45117 1.69633V1.70143M1.45117 1.69633V1.70143M1.45117 1.70143V1.70653M1.45117 1.70143V1.70653M1.45117 1.70653V1.71163M1.45117 1.70653V1.71163M1.45117 1.71163V1.71672M1.45117 1.71163V1.71672M1.45117 1.71672V1.72181M1.45117 1.71672V1.72181M1.45117 1.72181V1.7269M1.45117 1.72181V1.7269M1.45117 1.7269V1.73199M1.45117 1.7269V1.73199M1.45117 1.73199V1.73707M1.45117 1.73199V1.73707M1.45117 1.73707V1.74215M1.45117 1.73707V1.74215M1.45117 1.74215V1.74723M1.45117 1.74215V1.74723M1.45117 1.74723V1.75231M1.45117 1.74723V1.75231M1.45117 1.75231V1.75738M1.45117 1.75231V1.75738M1.45117 1.75738V1.76245M1.45117 1.75738V1.76245M1.45117 1.76245V1.76751M1.45117 1.76245V1.76751M1.45117 1.76751V1.77257M1.45117 1.76751V1.77257M1.45117 1.77257V1.77763M1.45117 1.77257V1.77763M1.45117 1.77763V1.78268M1.45117 1.77763V1.78268M1.45117 1.78268V1.78773M1.45117 1.78268V1.78773M1.45117 1.78773V1.79278M1.45117 1.78773V1.79278M1.45117 1.79278V1.79782M1.45117 1.79278V1.79782M1.45117 1.79782V1.80286M1.45117 1.79782V1.80286M1.45117 1.80286V1.8079M1.45117 1.80286V1.8079M1.45117 1.8079V1.81293M1.45117 1.8079V1.81293M1.45117 1.81293V1.81795M1.45117 1.81293V1.81795M1.45117 1.81795V1.82298M1.45117 1.81795V1.82298M1.45117 1.82298V1.828M1.45117 1.82298V1.828M1.45117 1.828V1.83301M1.45117 1.828V1.83301M1.45117 1.83301V1.83802M1.45117 1.83301V1.83802M1.45117 1.83802V1.84303M1.45117 1.83802V1.84303M1.45117 1.84303V1.84803M1.45117 1.84303V1.84803M1.45117 1.84803V1.85302M1.45117 1.84803V1.85302M1.45117 1.85302V1.85801M1.45117 1.85302V1.85801M1.45117 1.85801V1.863M1.45117 1.85801V1.863M1.45117 1.863V1.86798M1.45117 1.863V1.86798M1.45117 1.86798V1.87296M1.45117 1.86798V1.87296M1.45117 1.87296V1.87793M1.45117 1.87296V1.87793M1.45117 1.87793V1.8829M1.45117 1.87793V1.8829M1.45117 1.8829V1.88786M1.45117 1.8829V1.88786M1.45117 1.88786V1.89282M1.45117 1.88786V1.89282M1.45117 1.89282V1.89777M1.45117 1.89282V1.89777M1.45117 1.89777V1.90271M1.45117 1.89777V1.90271M1.45117 1.90271V1.90766M1.45117 1.90271V1.90766M1.45117 1.90766V1.91259M1.45117 1.90766V1.91259M1.45117 1.91259V1.91752M1.45117 1.91259V1.91752M1.45117 1.91752V1.92244M1.45117 1.91752V1.92244M1.45117 1.92244V1.92736M1.45117 1.92244V1.92736M1.45117 1.92736V1.93228M1.45117 1.92736V1.93228M1.45117 1.93228V1.93718M1.45117 1.93228V1.93718M1.45117 1.93718V1.94208M1.45117 1.93718V1.94208M1.45117 1.94208V1.94698M1.45117 1.94208V1.94698M1.45117 1.94698V1.95187M1.45117 1.94698V1.95187M1.45117 1.95187V1.95675M1.45117 1.95187V1.95675M1.45117 1.95675V1.96162M1.45117 1.95675V1.96162M1.45117 1.96162V1.96649M1.45117 1.96162V1.96649M1.45117 1.96649V1.97136M1.45117 1.96649V1.97136M1.45117 1.97136V1.97622M1.45117 1.97136V1.97622M1.45117 1.97622V1.98107M1.45117 1.97622V1.98107M1.45117 1.98107V1.98591M1.45117 1.98107V1.98591M1.45117 1.98591V1.99075M1.45117 1.98591V1.99075M1.45117 1.99075V1.99558M1.45117 1.99075V1.99558M1.45117 1.99558V2.0004M1.45117 1.99558V2.0004M1.45117 2.0004V2.00522M1.45117 2.0004V2.00522M1.45117 2.00522V2.01003M1.45117 2.00522V2.01003M1.45117 2.01003V2.01483M1.45117 2.01003V2.01483M1.45117 2.01483V2.01963M1.45117 2.01483V2.01963M1.45117 2.01963V2.02442M1.45117 2.01963V2.02442M1.45117 2.02442V2.0292M1.45117 2.02442V2.0292M1.45117 2.0292V2.03397M1.45117 2.0292V2.03397M1.45117 2.03397V2.03874M1.45117 2.03397V2.03874M1.45117 2.03874V2.0435M1.45117 2.03874V2.0435M1.45117 2.0435V2.04825M1.45117 2.0435V2.04825M1.45117 2.04825V2.05299M1.45117 2.04825V2.05299M1.45117 2.05299V2.05773M1.45117 2.05299V2.05773M1.45117 2.05773V2.06246V2.05773ZM7.04883 1.61111H7.07617V1.61441V1.61954V1.62467V1.6298V1.63493V1.64006V1.64518V1.65031V1.65543V1.66055V1.66566V1.67078V1.67589V1.68101V1.68612V1.69122V1.69633V1.70143V1.70653V1.71163V1.71672V1.72181V1.7269V1.73199V1.73707V1.74215V1.74723V1.75231V1.75738V1.76245V1.76751V1.77257V1.77763V1.78268V1.78773V1.79278V1.79782V1.80286V1.8079V1.81293V1.81795V1.82298V1.828V1.83301V1.83802V1.84303V1.84803V1.85302V1.85801V1.863V1.86798V1.87296V1.87793V1.8829V1.88786V1.89282V1.89777V1.90271V1.90766V1.91259V1.91752V1.92244V1.92736V1.93228V1.93718V1.94208V1.94698V1.95187V1.95675V1.96162V1.96649V1.97136V1.97622V1.98107V1.98591V1.99075V1.99558V2.0004V2.00522V2.01003V2.01483V2.01963V2.02442V2.0292V2.03397V2.03874V2.0435V2.04825V2.05299V2.05773V2.06246V2.06718V2.07189V2.0766V2.08129V2.08598V2.09066V2.09534V2.1V2.10465V2.1093V2.11394V2.11857V2.12319V2.1278V2.13241V2.137V2.14159V2.14616V2.15073V2.15529V2.15983V2.16437V2.1689V2.17342V2.17793V2.18244V2.18693V2.19141V2.19588V2.20034V2.20479V2.20923V2.21366V2.21808V2.2225V2.2269V2.23128V2.23566V2.24003V2.24439V2.24874V2.25307V2.2574V2.26171V2.26601V2.27031V2.27459V2.27886V2.28311V2.28736V2.2916V2.29582V2.30003V2.30423V2.30842V2.3126V2.31676V2.32091V2.32505V2.32918V2.3333V2.3374V2.34149V2.34557V2.34964V2.35369V2.35773V2.36176V2.36577V2.36978V2.37377V2.37774V2.38171V2.38565V2.38959V2.39351V2.39742V2.40132V2.4052V2.40907V2.41293V2.41677V2.4206V2.42441V2.42821V2.432V2.43577V2.43953V2.44327V2.447V2.45071V2.45441V2.4581V2.46177V2.46542V2.46906V2.47269V2.4763V2.4799V2.48348V2.48704V2.49059V2.49413V2.49765V2.50115V2.50464V2.50811V2.51157V2.51501V2.51844V2.52185V2.52524V2.52862V2.53198V2.53533V2.53865V2.54197V2.54526V2.54854V2.55181V2.55505V2.55828V2.56149V2.56469V2.56787V2.57103V2.57418V2.5773V2.58041V2.58351V2.58658V2.58964V2.59268V2.59571V2.59871V2.6017V2.60467V2.60762V2.61055V2.61347V2.61637V2.61925V2.62211V2.62495V2.62778V2.63058V2.63337V2.63614V2.63889C7.07617 2.83383 7.1252 3.03386 7.23089 3.20088C7.29893 3.3084 7.41219 3.43075 7.57082 3.5H5.29637C5.455 3.43075 5.56826 3.3084 5.6363 3.20088C5.74199 3.03386 5.79102 2.83383 5.79102 2.63889V1.61111H7.04883ZM8.5 3.5H8.10887C8.2675 3.43075 8.38076 3.3084 8.4488 3.20088C8.46765 3.17108 8.48471 3.14023 8.5 3.10855V3.10975V3.11376V3.11777V3.1218V3.12583V3.12988V3.13393V3.13799V3.14206V3.14614V3.15023V3.15432V3.15843V3.16254V3.16666V3.1708V3.17494V3.17909V3.18324V3.18741V3.19159V3.19577V3.19996V3.20416V3.20837V3.21259V3.21682V3.22106V3.2253V3.22955V3.23381V3.23808V3.24236V3.24665V3.25095V3.25525V3.25956V3.26388V3.26821V3.27255V3.2769V3.28125V3.28561V3.28999V3.29437V3.29875V3.30315V3.30756V3.31197V3.31639V3.32082V3.32526V3.32971V3.33416V3.33862V3.34309V3.34757V3.35206V3.35656V3.36106V3.36557V3.37009V3.37462V3.37916V3.3837V3.38825V3.39281V3.39738V3.40196V3.40654V3.41114V3.41574V3.42035V3.42496V3.42959V3.43422V3.43886V3.44351V3.44817V3.45283V3.4575V3.46218V3.46687V3.47157V3.47627V3.48098V3.4857V3.49043V3.49516V3.4999V3.5ZM2.97852 2.63889V1.61111H4.23633H4.26367V1.61441V1.61954V1.62467V1.6298V1.63493V1.64006V1.64518V1.65031V1.65543V1.66055V1.66566V1.67078V1.67589V1.68101V1.68612V1.69122V1.69633V1.70143V1.70653V1.71163V1.71672V1.72181V1.7269V1.73199V1.73707V1.74215V1.74723V1.75231V1.75738V1.76245V1.76751V1.77257V1.77763V1.78268V1.78773V1.79278V1.79782V1.80286V1.8079V1.81293V1.81795V1.82298V1.828V1.83301V1.83802V1.84303V1.84803V1.85302V1.85801V1.863V1.86798V1.87296V1.87793V1.8829V1.88786V1.89282V1.89777V1.90271V1.90766V1.91259V1.91752V1.92244V1.92736V1.93228V1.93718V1.94208V1.94698V1.95187V1.95675V1.96162V1.96649V1.97136V1.97622V1.98107V1.98591V1.99075V1.99558V2.0004V2.00522V2.01003V2.01483V2.01963V2.02442V2.0292V2.03397V2.03874V2.0435V2.04825V2.05299V2.05773V2.06246V2.06718V2.07189V2.0766V2.08129V2.08598V2.09066V2.09534V2.1V2.10465V2.1093V2.11394V2.11857V2.12319V2.1278V2.13241V2.137V2.14159V2.14616V2.15073V2.15529V2.15983V2.16437V2.1689V2.17342V2.17793V2.18244V2.18693V2.19141V2.19588V2.20034V2.20479V2.20923V2.21366V2.21808V2.2225V2.2269V2.23128V2.23566V2.24003V2.24439V2.24874V2.25307V2.2574V2.26171V2.26601V2.27031V2.27459V2.27886V2.28311V2.28736V2.2916V2.29582V2.30003V2.30423V2.30842V2.3126V2.31676V2.32091V2.32505V2.32918V2.3333V2.3374V2.34149V2.34557V2.34964V2.35369V2.35773V2.36176V2.36577V2.36978V2.37377V2.37774V2.38171V2.38565V2.38959V2.39351V2.39742V2.40132V2.4052V2.40907V2.41293V2.41677V2.4206V2.42441V2.42821V2.432V2.43577V2.43953V2.44327V2.447V2.45071V2.45441V2.4581V2.46177V2.46542V2.46906V2.47269V2.4763V2.4799V2.48348V2.48704V2.49059V2.49413V2.49765V2.50115V2.50464V2.50811V2.51157V2.51501V2.51844V2.52185V2.52524V2.52862V2.53198V2.53533V2.53865V2.54197V2.54526V2.54854V2.55181V2.55505V2.55828V2.56149V2.56469V2.56787V2.57103V2.57418V2.5773V2.58041V2.58351V2.58658V2.58964V2.59268V2.59571V2.59871V2.6017V2.60467V2.60762V2.61055V2.61347V2.61637V2.61925V2.62211V2.62495V2.62778V2.63058V2.63337V2.63614V2.63889C4.26367 2.83383 4.3127 3.03386 4.41839 3.20088C4.48643 3.3084 4.59969 3.43075 4.75832 3.5H2.48387C2.6425 3.43075 2.75576 3.3084 2.8238 3.20088C2.92949 3.03386 2.97852 2.83383 2.97852 2.63889ZM1.60589 3.20088C1.67393 3.3084 1.78719 3.43075 1.94582 3.5L1.45117 2.63889C1.45117 2.83383 1.5002 3.03386 1.60589 3.20088Z" fill="#878787" stroke="#878787"/>
<path d="M0.5 10.0625V5.5H0.503795H0.516663H0.529673H0.542823H0.556115H0.569545H0.583115H0.596822H0.610667H0.624648H0.638764H0.653016H0.667402H0.681921H0.696572H0.711356H0.726271H0.741315H0.75649H0.771793H0.787224H0.802782H0.818467H0.834277H0.850212H0.866272H0.882455H0.89876H0.915187H0.931735H0.948403H0.965191H0.982098H0.999122H1.01626H1.03352H1.0509H1.06838H1.08599H1.1037H1.12153H1.13947H1.15752H1.17569H1.19396H1.21234H1.23082H1.24942H1.26812H1.28693H1.30584H1.32486H1.34397H1.3632H1.38252H1.40194H1.42147H1.44109H1.46082H1.48064H1.50056H1.52057H1.54068H1.56088H1.58118H1.60158H1.62206H1.64264H1.6633H1.68406H1.70491H1.72585H1.74687H1.76798H1.78918H1.81046H1.83183H1.85328H1.87481H1.89643H1.91813H1.93991H1.96177H1.98371H2.00573H2.02783H2.05H2.07225H2.09457H2.11697H2.13945H2.162H2.18462H2.20731H2.23007H2.2529H2.27581H2.29878H2.32182H2.34492H2.36809H2.39133H2.41463H2.438H2.46143H2.48492H2.50848H2.53209H2.55577H2.5795H2.60329H2.62715H2.65105H2.67502H2.69904H2.72311H2.74724H2.77142H2.79566H2.81994H2.84428H2.86867H2.8931H2.91759H2.94212H2.9667H2.99133H3.016H3.04072H3.06548H3.09028H3.11513H3.14002H3.16494H3.18991H3.21492H3.23997H3.26505H3.29018H3.31533H3.34053H3.36576H3.39102H3.41631H3.44164H3.467H3.49239H3.51781H3.54326H3.56874H3.59425H3.61978H3.64534H3.67092H3.69653H3.72217H3.74783H3.7735H3.79921H3.82493H3.85067H3.87643H3.90221H3.92801H3.95382H3.97965H4.0055H4.03136H4.05724H4.08313H4.10903H4.13494H4.16086H4.18679H4.21274H4.23869H4.26465H4.29061H4.31659H4.34256H4.36855H4.39453H4.42052H4.44651H4.47251H4.4985H4.52449H4.55049H4.57648H4.60247H4.62846H4.65444H4.68042H4.70639H4.73236H4.75832H4.78427H4.81021H4.83615H4.86207H4.88799H4.91389H4.93978H4.96566H4.99152H5.01737H5.04321H5.06902H5.09482H5.12061H5.14637H5.17212H5.19784H5.22355H5.24923H5.27489H5.30053H5.32614H5.35173H5.3773H5.40284H5.42835H5.45383H5.47929H5.50471H5.53011H5.55547H5.58081H5.60611H5.63138H5.65661H5.68181H5.70698H5.7321H5.75719H5.78225H5.80726H5.83224H5.85718H5.88207H5.90693H5.93174H5.95651H5.98123H6.00591H6.03054H6.05513H6.07967H6.10417H6.12861H6.15301H6.17735H6.20165H6.22589H6.25008H6.27422H6.29831H6.32234H6.34631H6.37023H6.39409H6.41789H6.44164H6.46532H6.48895H6.51252H6.53602H6.55946H6.58284H6.60615H6.6294H6.65259H6.6757H6.69875H6.72174H6.74465H6.7675H6.79027H6.81298H6.83561H6.85817H6.88066H6.90307H6.92541H6.94767H6.96986H6.99197H7.014H7.03596H7.05783H7.07962H7.10134H7.12297H7.14452H7.16599H7.18737H7.20867H7.22988H7.25101H7.27205H7.293H7.31386H7.33463H7.35532H7.37591H7.39641H7.41682H7.43714H7.45736H7.47748H7.49752H7.51745H7.53729H7.55703H7.57667H7.59621H7.61566H7.635H7.65424H7.67338H7.69241H7.71134H7.73017H7.74889H7.7675H7.78601H7.80441H7.8227H7.84088H7.85895H7.87691H7.89476H7.91249H7.93012H7.94763H7.96502H7.9823H7.99946H8.01651H8.03343H8.05024H8.06693H8.0835H8.09995H8.11628H8.13248H8.14856H8.16452H8.18036H8.19606H8.21164H8.2271H8.24242H8.25762H8.27269H8.28763H8.30243H8.31711H8.33165H8.34606H8.36034H8.37448H8.38848H8.40235H8.41608H8.42968H8.44313H8.45645H8.46962H8.48266H8.49555H8.5V5.50969V5.52218V5.53468V5.5472V5.55972V5.57227V5.58482V5.59739V5.60997V5.62257V5.63517V5.64779V5.66043V5.67307V5.68573V5.69839V5.71107V5.72376V5.73646V5.74918V5.7619V5.77464V5.78738V5.80014V5.8129V5.82568V5.83847V5.85126V5.86407V5.87688V5.88971V5.90254V5.91538V5.92824V5.9411V5.95396V5.96684V5.97973V5.99262V6.00552V6.01843V6.03134V6.04427V6.0572V6.07013V6.08308V6.09603V6.10899V6.12195V6.13492V6.14789V6.16088V6.17386V6.18686V6.19985V6.21286V6.22586V6.23888V6.25189V6.26492V6.27794V6.29097V6.30401V6.31705V6.33009V6.34313V6.35618V6.36923V6.38229V6.39534V6.40841V6.42147V6.43453V6.4476V6.46067V6.47374V6.48681V6.49989V6.51296V6.52604V6.53912V6.5522V6.56527V6.57835V6.59143V6.60451V6.61759V6.63067V6.64375V6.65683V6.66991V6.68299V6.69607V6.70914V6.72222V6.73529V6.74836V6.76143V6.7745V6.78756V6.80062V6.81369V6.82674V6.8398V6.85285V6.8659V6.87894V6.89199V6.90502V6.91806V6.93109V6.94412V6.95714V6.97015V6.98317V6.99618V7.00918V7.02218V7.03517V7.04816V7.06114V7.07411V7.08708V7.10005V7.113V7.12596V7.1389V7.15184V7.16477V7.17769V7.19061V7.20352V7.21642V7.22931V7.2422V7.25507V7.26794V7.2808V7.29365V7.3065V7.31933V7.33215V7.34497V7.35778V7.37057V7.38336V7.39614V7.4089V7.42166V7.43441V7.44714V7.45987V7.47258V7.48528V7.49797V7.51065V7.52332V7.53598V7.54862V7.56125V7.57387V7.58648V7.59908V7.61166V7.62423V7.63678V7.64933V7.66185V7.67437V7.68687V7.69936V7.71184V7.72429V7.73674V7.74917V7.76159V7.77399V7.78637V7.79874V7.8111V7.82344V7.83576V7.84807V7.86036V7.87264V7.8849V7.89714V7.90937V7.92157V7.93377V7.94594V7.9581V7.97024V7.98236V7.99446V8.00655V8.01862V8.03067V8.0427V8.05471V8.0667V8.07868V8.09063V8.10257V8.11448V8.12638V8.13825V8.15011V8.16194V8.17376V8.18555V8.19733V8.20908V8.22081V8.23252V8.24421V8.25588V8.26753V8.27915V8.29075V8.30233V8.31389V8.32542V8.33694V8.34843V8.35989V8.37134V8.38276V8.39415V8.40552V8.41687V8.4282V8.4395V8.45077V8.46202V8.47325V8.48445V8.49563V8.50678V8.5179V8.52901V8.54008V8.55113V8.56215V8.57315V8.58412V8.59506V8.60598V8.61687V8.62773V8.63857V8.64938V8.66016V8.67091V8.68163V8.69233V8.703V8.71364V8.72425V8.73484V8.74539V8.75592V8.76641V8.77688V8.78732V8.79773V8.8081V8.81845V8.82877V8.83906V8.84931V8.85954V8.86973V8.8799V8.89003V8.90013V8.9102V8.92024V8.93025V8.94022V8.95016V8.96007V8.96995V8.9798V8.98961V8.99939V9.00913V9.01885V9.02852V9.03817V9.04778V9.05736V9.0669V9.07641V9.08588V9.09532V9.10473V9.1141V9.12343V9.13273V9.142V9.15122V9.16042V9.16957V9.17869V9.18778V9.19682V9.20583V9.21481V9.22374V9.23264V9.24151V9.25033V9.25912V9.26787V9.27658V9.28525V9.29389V9.30248V9.31104V9.31956V9.32804V9.33648V9.34488V9.35324V9.36157V9.36985V9.37809V9.38629V9.39445V9.40258V9.41066V9.4187V9.4267V9.43465V9.44257V9.45045V9.45828V9.46607V9.47382V9.48153V9.48919V9.49682V9.5044V9.51193V9.51943V9.52688V9.53429V9.54165V9.54897V9.55625V9.56348V9.57067V9.57782V9.58492V9.59197V9.59898V9.60595V9.61287V9.61974V9.62657V9.63336V9.6401V9.64679V9.65343V9.66003V9.66659V9.67309V9.67955V9.68597V9.69233V9.69865V9.70492V9.71115V9.71732V9.72345V9.72953V9.73556V9.74155V9.74748V9.75337V9.7592V9.76499V9.77073V9.77642V9.78206V9.78765V9.79319V9.79868V9.80412V9.8095V9.81484V9.82013V9.82537V9.83055V9.83569V9.84077V9.8458V9.85078V9.85571V9.86058V9.86541V9.87018V9.8749V9.87956V9.88417V9.88873V9.89324V9.89769V9.90209V9.90644V9.91073V9.91496V9.91915V9.92327V9.92735V9.93137V9.93533V9.93924V9.9431V9.94689V9.95064V9.95432V9.95796V9.96153V9.96505V9.96851V9.97192V9.97527V9.97856V9.9818V9.98497V9.98809V9.99116V9.99416V9.99711V10V10.0028V10.0056V10.0083V10.011V10.0136V10.0161V10.0186V10.021V10.0234V10.0257V10.0279V10.0301V10.0322V10.0343V10.0363V10.0382V10.0401V10.0419V10.0436V10.0453V10.047V10.0485V10.05V10.0515V10.0529V10.0542V10.0555V10.0567V10.0578V10.0589V10.0599V10.0608V10.0617V10.0625C8.5 10.208 8.44982 10.3269 8.38591 10.4027C8.3228 10.4775 8.25814 10.5 8.20898 10.5H0.791016C0.741863 10.5 0.6772 10.4775 0.614091 10.4027C0.550183 10.3269 0.5 10.208 0.5 10.0625ZM1.96875 9.83333H2.53125C3.02926 9.83333 3.29492 9.38658 3.29492 9.02083C3.29492 8.78519 3.18464 8.51592 2.973 8.35417C3.18464 8.19241 3.29492 7.92314 3.29492 7.6875C3.29492 7.45186 3.18464 7.18258 2.973 7.02083C3.18464 6.85908 3.29492 6.58981 3.29492 6.35417C3.29492 5.98842 3.02926 5.54167 2.53125 5.54167H1.96875C1.47074 5.54167 1.20508 5.98842 1.20508 6.35417C1.20508 6.58981 1.31536 6.85908 1.527 7.02083C1.31536 7.18258 1.20508 7.45186 1.20508 7.6875C1.20508 7.92314 1.31536 8.19241 1.527 8.35417C1.31536 8.51592 1.20508 8.78519 1.20508 9.02083C1.20508 9.38658 1.47074 9.83333 1.96875 9.83333ZM4.21875 9.83333H4.78125C5.27926 9.83333 5.54492 9.38658 5.54492 9.02083C5.54492 8.78519 5.43464 8.51592 5.223 8.35417C5.43464 8.19241 5.54492 7.92314 5.54492 7.6875C5.54492 7.45186 5.43464 7.18258 5.223 7.02083C5.43464 6.85908 5.54492 6.58981 5.54492 6.35417C5.54492 5.98842 5.27926 5.54167 4.78125 5.54167H4.21875C3.72074 5.54167 3.45508 5.98842 3.45508 6.35417C3.45508 6.58981 3.56536 6.85908 3.777 7.02083C3.56536 7.18258 3.45508 7.45186 3.45508 7.6875C3.45508 7.92314 3.56536 8.19241 3.777 8.35417C3.56536 8.51592 3.45508 8.78519 3.45508 9.02083C3.45508 9.38658 3.72074 9.83333 4.21875 9.83333ZM6.46875 9.83333H7.03125C7.52926 9.83333 7.79492 9.38658 7.79492 9.02083C7.79492 8.78519 7.68464 8.51592 7.473 8.35417C7.68464 8.19241 7.79492 7.92314 7.79492 7.6875C7.79492 7.45186 7.68464 7.18258 7.473 7.02083C7.68464 6.85908 7.79492 6.58981 7.79492 6.35417C7.79492 5.98842 7.52926 5.54167 7.03125 5.54167H6.46875C5.97074 5.54167 5.70508 5.98842 5.70508 6.35417C5.70508 6.58981 5.81536 6.85908 6.027 7.02083C5.81536 7.18258 5.70508 7.45186 5.70508 7.6875C5.70508 7.92314 5.81536 8.19241 6.027 8.35417C5.81536 8.51592 5.70508 8.78519 5.70508 9.02083C5.70508 9.38658 5.97074 9.83333 6.46875 9.83333Z" fill="#878787" stroke="#878787"/>
</svg>
